# xmcd
#
# Track frame offsets: 
#        150
#        15568
#        28987
#        47000
#        62319
#        77407
#        92352
#        108181
#        123786
#        137868
#        151751
#        165213
#        180175
#        194493
#        207885
#
# Disc length: 3061 seconds
#
# Revision: 0
# Processed by: cddbd v1.5.2PL0 Copyright (c) Steve Scherf et al.
# Submitted via: ExactAudioCopy v0.99pb4
#
DISCID=a60bf30f
DTITLE=Keegan Smith - Special Delivery
DYEAR=2009
DGENRE=Crossover
TTITLE0=Morning Comes
TTITLE1=Fresh Air
TTITLE2=Just Fine
TTITLE3=Dancing Shoes ft Marv Ellis and Acoustic Minds
TTITLE4=Call Me
TTITLE5=Funk Shop ft Marv Ellis and Acoustic Minds
TTITLE6=Break Down
TTITLE7=Relapse
TTITLE8=Count My Sins
TTITLE9=Witness
TTITLE10=Match Maker
TTITLE11=Love Falls Down
TTITLE12=Oregonic Acoustic
TTITLE13=Brand New
TTITLE14=Smile ft Avery Dawn
EXTD=
EXTT0=
EXTT1=
EXTT2=
EXTT3=
EXTT4=
EXTT5=
EXTT6=
EXTT7=
EXTT8=
EXTT9=
EXTT10=
EXTT11=
EXTT12=
EXTT13=
EXTT14=
PLAYORDER=
